<?xml version="1.0" standalone="no"?>
<!DOCTYPE svg PUBLIC "-//W3C//DTD SVG 20010904//EN"
 "http://www.w3.org/TR/2001/REC-SVG-20010904/DTD/svg10.dtd">
<svg version="1.0" xmlns="http://www.w3.org/2000/svg"
 width="512.000000pt" height="512.000000pt" viewBox="0 0 512.000000 512.000000"
 preserveAspectRatio="xMidYMid meet">

<g transform="translate(0.000000,512.000000) scale(0.100000,-0.100000)"
fill="#000000" stroke="none">
<path d="M1832 5100 c-125 -15 -161 -23 -197 -45 -54 -31 -94 -94 -102 -163
-5 -46 -8 -51 -36 -56 -16 -3 -58 -6 -93 -6 -113 0 -163 -16 -215 -70 -50 -50
-77 -126 -65 -175 6 -24 5 -25 -42 -25 -74 0 -342 -40 -372 -55 -61 -31 -110
-114 -110 -185 0 -14 38 -211 85 -437 47 -226 85 -418 85 -427 0 -9 -8 -16
-20 -16 -62 0 -135 -71 -146 -142 -7 -40 531 -3170 551 -3207 18 -35 44 -57
88 -76 32 -13 188 -15 1322 -15 1138 0 1290 2 1323 15 45 19 77 48 91 83 20
49 553 3165 547 3200 -11 71 -84 142 -146 142 -12 0 -20 7 -20 18 0 9 38 201
85 426 47 225 85 421 85 435 0 72 -49 154 -110 186 -30 15 -298 55 -373 55
-44 0 -48 2 -42 20 4 11 1 45 -5 76 -10 45 -21 65 -58 104 -53 54 -103 70
-216 70 -35 0 -77 3 -93 6 -28 5 -31 10 -36 56 -8 68 -48 132 -102 163 -37 22
-70 29 -225 47 -99 11 -196 17 -214 14 -18 -3 -53 -19 -78 -35 -67 -43 -94
-105 -108 -251 -6 -63 -13 -132 -16 -153 l-6 -39 -27 25 c-59 55 -74 58 -299
54 -114 -1 -216 -6 -228 -11 -20 -7 -21 -3 -33 116 -15 156 -42 217 -114 262
-62 38 -113 41 -315 16z m250 -161 c16 -22 25 -86 58 -430 21 -222 40 -437 43
-476 l6 -73 -27 0 c-42 -1 -104 -33 -139 -73 -55 -63 -59 -94 -35 -337 11
-118 19 -216 18 -217 -1 -2 -22 43 -45 100 l-42 102 -40 565 c-38 548 -40 567
-65 618 -25 52 -90 112 -121 112 -20 0 -16 54 6 81 16 21 35 25 157 40 179 22
202 21 226 -12z m1182 13 c132 -16 151 -21 167 -41 22 -27 26 -81 6 -81 -32 0
-99 -63 -122 -113 -22 -47 -26 -83 -44 -347 -12 -162 -23 -322 -26 -356 l-6
-60 -67 0 c-101 1 -178 -52 -202 -138 -6 -23 -33 -191 -60 -372 -26 -181 -48
-317 -49 -302 -1 14 37 421 84 904 80 829 86 878 107 901 25 27 21 27 212 5z
m-1596 -285 c21 -22 23 -44 42 -313 11 -159 21 -309 24 -334 l3 -45 -27 60
c-42 94 -105 147 -187 161 -29 4 -59 -1 -113 -20 -41 -14 -76 -23 -79 -20 -12
12 -59 458 -51 480 13 33 27 39 125 45 206 13 240 11 263 -14z m2155 1 c33
-17 35 -48 14 -231 l-21 -177 -90 0 c-108 0 -157 -19 -203 -75 -35 -42 -48
-87 -58 -195 l-7 -76 -34 4 c-19 2 -34 9 -34 16 0 6 11 168 25 360 24 331 26
351 47 374 l23 24 160 -7 c88 -4 168 -12 178 -17z m-1098 -122 c14 -22 15 -75
5 -538 -6 -282 -14 -556 -17 -608 -6 -90 -8 -81 -20 145 -7 132 -17 257 -23
278 -14 48 -62 102 -114 129 -33 17 -58 21 -128 20 l-87 -2 -5 43 c-3 23 -7
145 -10 271 -4 188 -2 235 10 258 l15 28 179 0 c179 0 180 0 195 -24z m-1593
-153 c10 -12 22 -64 32 -143 22 -171 23 -161 -34 -192 -69 -39 -105 -102 -104
-183 1 -54 10 -80 88 -243 47 -100 86 -185 86 -187 0 -3 -61 -5 -135 -5 -131
0 -135 1 -140 23 -15 65 -175 850 -175 861 0 37 27 50 146 67 164 23 217 23
236 2z m3072 1 c141 -18 163 -25 171 -56 4 -17 -125 -682 -170 -875 -5 -20
-12 -23 -61 -23 l-55 0 6 33 c17 99 65 523 65 572 0 32 -7 72 -16 91 -23 48
-77 92 -131 105 l-46 12 7 60 c11 104 22 108 230 81z m-213 -305 c26 -14 25
-46 -16 -369 -19 -151 -35 -276 -35 -277 0 -2 -79 -3 -175 -3 -96 0 -175 3
-175 8 0 4 9 56 20 116 24 130 25 187 6 225 -12 22 -13 48 -5 137 5 60 11 120
15 134 12 52 16 53 188 46 87 -4 167 -11 177 -17z m-2457 -61 c18 -16 71 -132
172 -373 237 -569 228 -545 199 -510 -14 17 -45 68 -67 115 -86 175 -95 180
-312 180 l-155 0 -46 98 c-170 356 -170 355 -121 388 23 15 285 124 298 124 4
0 18 -10 32 -22z m957 -208 c5 0 15 -11 24 -23 12 -19 20 -119 40 -493 14
-258 25 -475 25 -483 0 -30 -204 1 -326 50 l-50 20 -44 434 c-40 410 -42 436
-26 460 13 20 25 25 59 26 23 1 92 5 152 9 61 3 116 5 123 3 8 -2 18 -3 23 -3z
m841 -39 c65 -10 125 -24 133 -31 20 -16 19 -40 -7 -186 l-21 -123 -44 -31
c-35 -24 -52 -47 -79 -106 -60 -132 -141 -237 -248 -321 -38 -29 -70 -52 -72
-50 -2 2 23 192 56 423 54 374 62 421 81 437 15 12 32 16 53 12 17 -3 84 -14
148 -24z m-1645 -558 c139 -300 416 -506 743 -554 107 -15 270 -6 375 21 102
27 261 104 345 168 124 93 226 221 293 365 l31 67 447 0 c255 0 450 -4 453 -9
5 -7 -209 -1280 -229 -1368 l-5 -23 -260 0 c-247 0 -261 -1 -280 -20 -22 -22
-26 -60 -10 -90 18 -34 66 -40 300 -40 l226 0 -38 -217 c-21 -120 -38 -221
-38 -225 0 -5 -91 -8 -202 -8 -193 0 -203 -1 -225 -22 -28 -26 -30 -67 -4 -99
19 -23 23 -24 210 -27 105 -2 191 -6 191 -10 0 -10 -159 -933 -165 -959 l-5
-23 -1275 0 c-1204 0 -1274 1 -1279 18 -5 17 -166 951 -166 964 0 4 86 8 191
10 187 3 191 4 210 27 25 31 24 69 -3 98 -21 23 -25 23 -224 23 l-202 0 -16
93 c-9 50 -27 151 -39 224 l-23 132 247 3 c226 3 249 5 268 22 14 13 21 31 21
57 0 67 -8 69 -302 69 l-258 0 -5 23 c-20 85 -234 1360 -230 1368 4 5 191 9
454 9 l447 0 31 -67z"/>
<path d="M2450 2349 c-221 -29 -447 -165 -576 -344 -54 -76 -116 -206 -140
-295 -25 -91 -25 -329 0 -420 56 -206 183 -383 356 -499 148 -99 294 -143 475
-143 339 0 631 186 774 493 63 134 75 193 75 359 0 166 -12 225 -75 358 -160
343 -515 539 -889 491z m270 -160 c123 -26 254 -100 350 -198 78 -80 131 -168
167 -276 23 -69 27 -97 27 -210 1 -109 -3 -142 -22 -205 -95 -303 -363 -503
-677 -503 -314 0 -582 200 -677 503 -33 108 -33 293 0 400 45 142 119 254 227
343 168 139 388 192 605 146z"/>
</g>
</svg>
